# xmcd CD database file
#
# Track frame offsets:
#       150
#       11814
#       26346
#       37916
#       58968
#       70635
#       82969
#       96947
#       109126
#       117061
#       130511
#       140321
#
# Disc length: 2095 seconds
#
# Revision: 0
# Processed by: cddbd v1.4PL0 Copyright (c) Steve Scherf et al.
# Submitted via: jack 2.99.5
#
DISCID=92082d0c
DTITLE=Heartbreak Hill - Heartbreak Hill
DYEAR=1900
DGENRE=
TTITLE0=Packed My Bags
TTITLE1=High On A Mountain
TTITLE2=Bluegrass Stomp
TTITLE3=John Tyrone
TTITLE4=Fall On My Knees
TTITLE5=Weary, Weary Lonesome Blues
TTITLE6=Things We Must Choose (Ode To Maggie Bell)
TTITLE7=On This Run (From The Blues)
TTITLE8=Daybreak In Drive
TTITLE9=I Scare You
TTITLE10=Cedar Hill
TTITLE11=Lonesome Train
EXTD=
EXTT0=
EXTT1=
EXTT2=
EXTT3=
EXTT4=
EXTT5=
EXTT6=
EXTT7=
EXTT8=
EXTT9=
EXTT10=
EXTT11=
PLAYORDER=
